<?xml version="1.0"?>
<svg xmlns="http://www.w3.org/2000/svg" xmlns:xlink="http://www.w3.org/1999/xlink" xmlns:svgjs="http://svgjs.com/svgjs" version="1.1" width="512" height="512" x="0" y="0" viewBox="0 0 24 24" style="enable-background:new 0 0 512 512" xml:space="preserve" class=""><g><path xmlns="http://www.w3.org/2000/svg" d="m21.317 20.561-1.071-2.355c-.163-.361-.246-.744-.246-1.139v-9.067c0-1.103.897-2 2-2s2 .897 2 2v9.067c0 .395-.083.778-.246 1.138l-1.071 2.356c-.266.584-1.1.584-1.366 0zm1.754-2.666h.01z" fill="#f1a734" data-original="#ffc107" style="" class=""/><path xmlns="http://www.w3.org/2000/svg" d="m18 5.75v15.5c0 1.52-1.23 2.75-2.75 2.75h-12.5c-1.52 0-2.75-1.23-2.75-2.75v-15.5c0-1.52 1.23-2.75 2.75-2.75h1.32c.22.86 1 1.5 1.93 1.5h6c.93 0 1.71-.64 1.93-1.5h1.32c1.52 0 2.75 1.23 2.75 2.75z" fill="#eceff1" data-original="#eceff1" style="" class=""/><path xmlns="http://www.w3.org/2000/svg" d="m12 6h-6c-1.103 0-2-.897-2-2v-1c0-.552.448-1 1-1h1.171c.413-1.164 1.525-2 2.829-2s2.416.836 2.829 2h1.171c.552 0 1 .448 1 1v1c0 1.103-.897 2-2 2z" fill="#607d8b" data-original="#607d8b" style="" class=""/><path xmlns="http://www.w3.org/2000/svg" d="m12 12.75h-1.5v-1.5c0-.138-.112-.25-.25-.25h-2.5c-.138 0-.25.112-.25.25v1.5h-1.5v-1.5c0-.965.785-1.75 1.75-1.75h2.5c.965 0 1.75.785 1.75 1.75z" fill="#607d8b" data-original="#607d8b" style="" class=""/><path xmlns="http://www.w3.org/2000/svg" d="m9 17.081-6-2.857v-.474c0-.965.785-1.75 1.75-1.75h8.5c.965 0 1.75.785 1.75 1.75v.474z" fill="#64b5f6" data-original="#64b5f6" style="" class=""/><path xmlns="http://www.w3.org/2000/svg" d="m13.25 20h-8.5c-.965 0-1.75-.785-1.75-1.75v-4.25l6 2 6-2v4.25c0 .965-.785 1.75-1.75 1.75z" fill="#2196f3" data-original="#2196f3" style=""/><path xmlns="http://www.w3.org/2000/svg" d="m9 11h-1.25c-.138 0-.25.112-.25.25v.75h1.5zm-5-8h-1.25c-1.52 0-2.75 1.23-2.75 2.75v15.5c0 1.52 1.23 2.75 2.75 2.75h6.25v-4h-4.25c-.965 0-1.75-.785-1.75-1.75v-4.026-.474c0-.965.785-1.75 1.75-1.75h1.25v-.75c0-.965.785-1.75 1.75-1.75h1.25v-3.5h-3c-1.103 0-2-.897-2-2z" fill="#cdd0d2" data-original="#cdd0d2" style="" class=""/><path xmlns="http://www.w3.org/2000/svg" d="m9 0c-1.304 0-2.416.836-2.829 2h-1.171c-.552 0-1 .448-1 1v1c0 1.103.897 2 2 2h3z" fill="#546d79" data-original="#546d79" style="" class=""/><path xmlns="http://www.w3.org/2000/svg" d="m9 9.5h-1.25c-.965 0-1.75.785-1.75 1.75v.75h1.5v-.75c0-.138.112-.25.25-.25h1.25z" fill="#546d79" data-original="#546d79" style="" class=""/><path xmlns="http://www.w3.org/2000/svg" d="m9 12h-1.5-1.5-1.25c-.965 0-1.75.785-1.75 1.75v.474-.224l6 2z" fill="#579ed6" data-original="#579ed6" style="" class=""/><path xmlns="http://www.w3.org/2000/svg" d="m3 14v.224 4.026c0 .965.785 1.75 1.75 1.75h4.25v-4z" fill="#1d83d4" data-original="#1d83d4" style="" class=""/><path xmlns="http://www.w3.org/2000/svg" d="m22 6c-1.103 0-2 .897-2 2v9.067c0 .395.083.778.247 1.138l1.071 2.355c.133.292.408.438.683.438v-14.998z" fill="#fa9008" data-original="#dea806" style="" class=""/></g></svg>
