<?xml version="1.0"?>
<svg xmlns="http://www.w3.org/2000/svg" xmlns:xlink="http://www.w3.org/1999/xlink" xmlns:svgjs="http://svgjs.com/svgjs" version="1.1" width="512" height="512" x="0" y="0" viewBox="0 0 464 464" style="enable-background:new 0 0 512 512" xml:space="preserve" class=""><g><path xmlns="http://www.w3.org/2000/svg" d="m368 80v352c0 17.671875-14.328125 32-32 32h-256c-17.671875 0-32-14.328125-32-32v-16h240c17.671875 0 32-14.328125 32-32v-336h16c17.671875 0 32 14.328125 32 32zm0 0" fill="#d1d3d4" data-original="#d1d3d4" style=""/><path xmlns="http://www.w3.org/2000/svg" d="m32 0h256c17.671875 0 32 14.328125 32 32v352c0 17.671875-14.328125 32-32 32h-256c-17.671875 0-32-14.328125-32-32v-352c0-17.671875 14.328125-32 32-32zm0 0" fill="#e6e7e8" data-original="#e6e7e8" style="" class=""/><path xmlns="http://www.w3.org/2000/svg" d="m336 48v352c0 17.671875-14.328125 32-32 32h-256v-16h240c17.671875 0 32-14.328125 32-32v-336zm0 0" fill="#bcbec0" data-original="#bcbec0" style=""/><path xmlns="http://www.w3.org/2000/svg" d="m248 40 24 24v-64h-48v64zm0 0" fill="#74bb44" data-original="#ff6243" style="" class=""/><path xmlns="http://www.w3.org/2000/svg" d="m320 128.640625v255.359375c0 17.671875-14.328125 32-32 32h-256c-17.671875 0-32-14.328125-32-32v-8.878906c96.238281-36.480469 232.878906-109.359375 320-246.480469zm0 0" fill="#d8d7da" data-original="#d8d7da" style=""/><g xmlns="http://www.w3.org/2000/svg" fill="#ffb655"><path d="m48 72v64h64v-64zm0 0" fill="#fa9008" data-original="#ffb655" style="" class=""/><path d="m48 248h64v-64h-64zm0 0" fill="#fa9008" data-original="#ffb655" style="" class=""/><path d="m48 288h64v64h-64zm0 0" fill="#fa9008" data-original="#ffb655" style="" class=""/></g><path xmlns="http://www.w3.org/2000/svg" d="m88 120c-2.121094 0-4.15625-.84375-5.65625-2.34375l-16-16 11.3125-11.3125 10.34375 10.34375 42.34375-42.34375 11.3125 11.3125-48 48c-1.5 1.5-3.535156 2.34375-5.65625 2.34375zm0 0" fill="#85c758" data-original="#ff5023" style="" class=""/><path xmlns="http://www.w3.org/2000/svg" d="m88 232c-2.121094 0-4.15625-.84375-5.65625-2.34375l-16-16 11.3125-11.3125 10.34375 10.34375 42.34375-42.34375 11.3125 11.3125-48 48c-1.5 1.5-3.535156 2.34375-5.65625 2.34375zm0 0" fill="#85c758" data-original="#ff5023" style="" class=""/><path xmlns="http://www.w3.org/2000/svg" d="m152 112h80v16h-80zm0 0" fill="#acabb1" data-original="#acabb1" style="" class=""/><path xmlns="http://www.w3.org/2000/svg" d="m152 80h48v16h-48zm0 0" fill="#898890" data-original="#898890" style=""/><path xmlns="http://www.w3.org/2000/svg" d="m152 224h80v16h-80zm0 0" fill="#acabb1" data-original="#acabb1" style="" class=""/><path xmlns="http://www.w3.org/2000/svg" d="m152 192h48v16h-48zm0 0" fill="#898890" data-original="#898890" style=""/><path xmlns="http://www.w3.org/2000/svg" d="m152 328h80v16h-80zm0 0" fill="#acabb1" data-original="#acabb1" style="" class=""/><path xmlns="http://www.w3.org/2000/svg" d="m152 296h48v16h-48zm0 0" fill="#898890" data-original="#898890" style=""/><path xmlns="http://www.w3.org/2000/svg" d="m216 296h16v16h-16zm0 0" fill="#acabb1" data-original="#acabb1" style="" class=""/></g></svg>
