<?xml version="1.0"?>
<svg xmlns="http://www.w3.org/2000/svg" xmlns:xlink="http://www.w3.org/1999/xlink" xmlns:svgjs="http://svgjs.com/svgjs" version="1.1" width="512" height="512" x="0" y="0" viewBox="0 0 512 512" style="enable-background:new 0 0 512 512" xml:space="preserve" class=""><g>
<g xmlns="http://www.w3.org/2000/svg">
	<path style="" d="M397.921,73.19c-1.827,0-3.672-0.565-5.244-1.73c-39.733-29.422-86.872-44.977-136.333-44.977   c-51.456,0-102.276,16.702-135.945,44.668c-2.631,2.189-6.294,2.648-9.393,1.201s-5.076-4.564-5.076-7.989V8.828   c0-4.873,3.955-8.828,8.828-8.828s8.828,3.955,8.828,8.828v37.976c35.919-23.993,84.18-37.976,132.758-37.976   c53.274,0,104.051,16.746,146.838,48.437c3.919,2.904,4.74,8.43,1.836,12.35C403.288,71.954,400.622,73.19,397.921,73.19z" fill="#fa9008" data-original="#ebba16"/>
	<path style="" d="M447.629,406.758c-1.827,0-3.672-0.565-5.244-1.73c-3.919-2.904-4.74-8.43-1.836-12.35   c29.422-39.724,44.977-86.863,44.977-136.324c0-51.465-16.702-102.276-44.668-135.945c-2.189-2.631-2.657-6.294-1.201-9.393   s4.555-5.085,7.98-5.085h55.534c4.873,0,8.828,3.955,8.828,8.828s-3.955,8.828-8.828,8.828h-37.976   c23.993,35.919,37.976,84.18,37.976,132.758c0,53.274-16.746,104.051-48.437,146.838   C452.996,405.522,450.33,406.758,447.629,406.758z" fill="#fa9008" data-original="#ebba16"/>
	<path style="" d="M397.241,512c-4.873,0-8.828-3.955-8.828-8.828v-37.976c-35.919,23.993-84.18,37.976-132.758,37.976   c-53.274,0-104.051-16.746-146.838-48.437c-3.919-2.904-4.74-8.43-1.836-12.35c2.904-3.919,8.43-4.749,12.35-1.836   c39.724,29.422,86.863,44.977,136.333,44.977c51.456,0,102.276-16.702,135.945-44.668c2.631-2.189,6.294-2.657,9.393-1.201   c3.09,1.439,5.067,4.555,5.067,7.98v55.534C406.069,508.045,402.114,512,397.241,512z" fill="#fa9008" data-original="#ebba16"/>
	<path style="" d="M64.362,406.069H8.828c-4.873,0-8.828-3.955-8.828-8.828c0-4.873,3.955-8.828,8.828-8.828h37.976   C22.81,352.494,8.828,304.234,8.828,255.656c0-53.274,16.746-104.051,48.437-146.838c2.904-3.919,8.43-4.74,12.35-1.836   c3.919,2.904,4.74,8.43,1.836,12.35c-29.414,39.724-44.968,86.863-44.968,136.324c0,51.465,16.702,102.276,44.668,135.945   c2.189,2.631,2.657,6.294,1.201,9.393C70.894,404.092,67.787,406.069,64.362,406.069z" fill="#fa9008" data-original="#ebba16"/>
</g>
<path xmlns="http://www.w3.org/2000/svg" style="" d="M397.241,273.655v-35.31h-17.046c-7.636,0-14.592-4.864-16.755-12.2  c-2.251-7.654-5.297-16.781-9.039-23.658c-3.663-6.727-2.233-15.104,3.187-20.524l12.067-12.067l-27.551-27.551l-12.067,12.067  c-5.42,5.42-13.798,6.85-20.524,3.187c-6.877-3.743-16.013-6.788-23.658-9.039c-7.336-2.154-12.2-9.119-12.2-16.755v-17.046h-35.31  v17.046c0,7.636-4.864,14.592-12.2,16.755c-7.654,2.251-16.781,5.297-23.658,9.039c-6.727,3.663-15.104,2.233-20.524-3.187  l-12.067-12.067l-27.551,27.551l12.067,12.067c5.42,5.42,6.85,13.798,3.187,20.524c-3.743,6.877-6.788,16.013-9.039,23.658  c-2.154,7.336-9.119,12.2-16.755,12.2h-17.046v35.31h17.046c7.636,0,14.592,4.864,16.755,12.2  c2.251,7.654,5.297,16.781,9.039,23.658c3.663,6.727,2.233,15.104-3.187,20.524l-12.067,12.067l27.551,27.551l12.067-12.067  c5.42-5.42,13.798-6.85,20.524-3.187c6.877,3.743,16.013,6.788,23.658,9.039c7.336,2.154,12.2,9.119,12.2,16.755v17.046h35.31  v-17.046c0-7.636,4.864-14.592,12.2-16.755c7.654-2.251,16.781-5.297,23.658-9.039c6.727-3.663,15.104-2.233,20.524,3.187  l12.067,12.067l27.551-27.551l-12.067-12.067c-5.42-5.42-6.85-13.798-3.187-20.524c3.743-6.877,6.788-16.013,9.039-23.658  c2.154-7.336,9.119-12.2,16.755-12.2H397.241z" fill="#afb6bb" data-original="#afb6bb" class=""/>
<circle xmlns="http://www.w3.org/2000/svg" style="" cx="256" cy="256" r="61.793" fill="#ffffff" data-original="#ffffff" class=""/>
<g xmlns="http://www.w3.org/2000/svg">
</g>
<g xmlns="http://www.w3.org/2000/svg">
</g>
<g xmlns="http://www.w3.org/2000/svg">
</g>
<g xmlns="http://www.w3.org/2000/svg">
</g>
<g xmlns="http://www.w3.org/2000/svg">
</g>
<g xmlns="http://www.w3.org/2000/svg">
</g>
<g xmlns="http://www.w3.org/2000/svg">
</g>
<g xmlns="http://www.w3.org/2000/svg">
</g>
<g xmlns="http://www.w3.org/2000/svg">
</g>
<g xmlns="http://www.w3.org/2000/svg">
</g>
<g xmlns="http://www.w3.org/2000/svg">
</g>
<g xmlns="http://www.w3.org/2000/svg">
</g>
<g xmlns="http://www.w3.org/2000/svg">
</g>
<g xmlns="http://www.w3.org/2000/svg">
</g>
<g xmlns="http://www.w3.org/2000/svg">
</g>
</g></svg>
