<?xml version="1.0" encoding="utf-8"?>
<!-- Generator: Adobe Illustrator 23.0.1, SVG Export Plug-In . SVG Version: 6.00 Build 0)  -->
<svg version="1.1" id="Capa_1" xmlns="http://www.w3.org/2000/svg" xmlns:xlink="http://www.w3.org/1999/xlink" x="0px" y="0px"
	 viewBox="0 0 490.7 387.8" style="enable-background:new 0 0 490.7 387.8;" xml:space="preserve">
<style type="text/css">
	.st0{fill:#455A64;}
	.st1{fill:#4CAF50;}
	.st2{fill:#FAFAFA;}
	.st3{fill:#607D8B;}
	.st4{fill:#F44336;}
</style>
<g>
	<g>
		<path class="st0" d="M99.1,170.7c-5.9,0-10.7-4.8-10.7-10.6c0-2.8,1.1-5.6,3.1-7.6L198.2,45.8c4.2-4.1,11-4,15.1,0.3
			c4,4.1,4,10.7,0,14.8L106.6,167.5C104.6,169.5,101.9,170.7,99.1,170.7z"/>
		<path class="st0" d="M397.7,170.7c-2.8,0-5.5-1.1-7.6-3.1L283.5,60.9c-4.1-4.2-4-11,0.3-15.1c4.1-4,10.7-4,14.8,0l106.7,106.7
			c4.2,4.2,4.1,10.9,0,15.1C403.2,169.5,400.5,170.7,397.7,170.7z"/>
	</g>
	<path class="st1" d="M53.3,153.1h384c29.5,0,53.3,23.9,53.3,53.3v128c0,29.5-23.9,53.3-53.3,53.3h-384C23.9,387.8,0,363.9,0,334.4
		v-128C0,177,23.9,153.1,53.3,153.1z"/>
	<g>
		<path class="st2" d="M56.4,341.3c-5.9,0-10.7-4.8-10.7-10.7v-128c0-5.9,4.8-10.7,10.7-10.7h64c5.9,0,10.7,4.8,10.7,10.7
			s-4.8,10.7-10.7,10.7H67.1v117.3C67.1,336.6,62.3,341.3,56.4,341.3z"/>
		<path class="st2" d="M99.1,277.3H56.4c-5.9,0-10.7-4.8-10.7-10.7S50.5,256,56.4,256h42.7c5.9,0,10.7,4.8,10.7,10.7
			S104.9,277.3,99.1,277.3z"/>
		<path class="st2" d="M227.1,341.3c-2.8,0-5.5-1.1-7.6-3.1l-45.8-45.8v38.3c0,5.9-4.8,10.7-10.7,10.7s-10.7-4.8-10.7-10.7v-128
			c0-5.9,4.8-10.7,10.7-10.7h32c23.6,0,42.7,19.1,42.7,42.7s-19.1,42.7-42.7,42.7h-6.3l45.8,45.8c4.2,4.2,4.2,10.9,0,15.1
			C232.6,340.2,229.9,341.3,227.1,341.3z M173.7,256h21.3c11.8,0,21.3-9.6,21.3-21.3s-9.6-21.3-21.3-21.3h-21.3L173.7,256L173.7,256
			z"/>
		<path class="st2" d="M333.7,341.3h-64c-5.9,0-10.7-4.8-10.7-10.7v-128c0-5.9,4.8-10.7,10.7-10.7h64c5.9,0,10.7,4.8,10.7,10.7
			s-4.8,10.7-10.7,10.7h-53.3V320h53.3c5.9,0,10.7,4.8,10.7,10.7C344.4,336.6,339.6,341.3,333.7,341.3z"/>
		<path class="st2" d="M312.4,277.3h-42.7c-5.9,0-10.7-4.8-10.7-10.7s4.8-10.7,10.7-10.7h42.7c5.9,0,10.7,4.8,10.7,10.7
			S318.3,277.3,312.4,277.3z"/>
		<path class="st2" d="M440.4,341.3h-64c-5.9,0-10.7-4.8-10.7-10.7v-128c0-5.9,4.8-10.7,10.7-10.7h64c5.9,0,10.7,4.8,10.7,10.7
			s-4.8,10.7-10.7,10.7h-53.3V320h53.3c5.9,0,10.7,4.8,10.7,10.7C451.1,336.6,446.3,341.3,440.4,341.3z"/>
		<path class="st2" d="M419.1,277.3h-42.7c-5.9,0-10.7-4.8-10.7-10.7s4.8-10.7,10.7-10.7h42.7c5.9,0,10.7,4.8,10.7,10.7
			S424.9,277.3,419.1,277.3z"/>
	</g>
	<path class="st3" d="M248.4,106.7c-29.5,0-53.3-23.9-53.3-53.3S218.9,0,248.4,0s53.3,23.9,53.3,53.3S277.8,106.7,248.4,106.7z"/>
	<g>
		<path class="st4" d="M44.6,383.2c-7.6,0-15.3-1.4-21.1-4.3c-11.7-5.7-11.7-14.9,0-20.6l401.3-196c11.7-5.7,30.6-5.7,42.2,0
			c11.7,5.7,11.7,14.9,0,20.6l-401.3,196C59.9,381.8,52.3,383.2,44.6,383.2z"/>
		<path class="st4" d="M445.9,383.2c-7.6,0-15.3-1.4-21.1-4.3l-401.3-196c-11.7-5.7-11.7-14.9,0-20.6c11.7-5.7,30.6-5.7,42.2,0
			l401.3,196c11.7,5.7,11.7,14.9,0,20.6C461.2,381.8,453.6,383.2,445.9,383.2z"/>
	</g>
</g>
</svg>
