<?xml version="1.0"?>
<svg xmlns="http://www.w3.org/2000/svg" xmlns:xlink="http://www.w3.org/1999/xlink" xmlns:svgjs="http://svgjs.com/svgjs" version="1.1" width="512" height="512" x="0" y="0" viewBox="0 0 511.99974 511" style="enable-background:new 0 0 512 512" xml:space="preserve" class=""><g><path xmlns="http://www.w3.org/2000/svg" d="m314.898438.5c-10.914063 0-273.042969 0-297.636719 0-9.539063 0-17.261719 7.722656-17.261719 17.25v476.191406c0 9.527344 7.722656 17.25 17.261719 17.25h297.636719c9.539062 0 17.261718-7.722656 17.261718-17.25v-476.191406c0-9.527344-7.722656-17.25-17.261718-17.25zm0 0" fill="#fff5f4" data-original="#fff5f4" style="" class=""/><path xmlns="http://www.w3.org/2000/svg" d="m53.589844 511.191406h-36.328125c-9.539063 0-17.261719-7.722656-17.261719-17.25v-476.191406c0-9.527344 7.722656-17.25 17.261719-17.25h36.328125c-9.539063 0-17.261719 7.722656-17.261719 17.25v476.191406c0 9.53125 7.722656 17.25 17.261719 17.25zm0 0" fill="#ebe0da" data-original="#ebe0da" style="" class=""/><path xmlns="http://www.w3.org/2000/svg" d="m275.582031 51.082031h-219.003906c-7.558594 0-13.691406 6.132813-13.691406 13.699219v76.335938c0 7.566406 6.132812 13.703124 13.691406 13.703124h219.003906c7.558594 0 13.691407-6.136718 13.691407-13.703124v-76.335938c0-7.566406-6.132813-13.699219-13.691407-13.699219zm0 0" fill="#63a6fd" data-original="#63a6fd" style="" class=""/><path xmlns="http://www.w3.org/2000/svg" d="m275.582031 204.464844h-219.003906c-7.558594 0-13.691406 6.136718-13.691406 13.703125v76.332031c0 7.566406 6.132812 13.703125 13.691406 13.703125h219.003906c7.558594 0 13.691407-6.136719 13.691407-13.703125v-76.332031c0-7.566407-6.132813-13.703125-13.691407-13.703125zm0 0" fill="#63a6fd" data-original="#63a6fd" style="" class=""/><path xmlns="http://www.w3.org/2000/svg" d="m275.582031 357.851562h-219.003906c-7.558594 0-13.691406 6.132813-13.691406 13.699219v76.335938c0 7.566406 6.132812 13.699219 13.691406 13.699219h219.003906c7.558594 0 13.691407-6.132813 13.691407-13.699219v-76.335938c0-7.566406-6.132813-13.699219-13.691407-13.699219zm0 0" fill="#63a6fd" data-original="#63a6fd" style="" class=""/><path xmlns="http://www.w3.org/2000/svg" d="m90.035156 154.820312h-33.453125c-7.558593 0-13.691406-6.136718-13.691406-13.703124v-76.335938c0-7.566406 6.132813-13.699219 13.691406-13.699219h33.453125c-7.554687 0-13.691406 6.132813-13.691406 13.699219v76.335938c0 7.566406 6.136719 13.703124 13.691406 13.703124zm0 0" fill="#1980f9" data-original="#1980f9" style="" class=""/><path xmlns="http://www.w3.org/2000/svg" d="m90.035156 308.203125h-33.453125c-7.558593 0-13.691406-6.136719-13.691406-13.703125v-76.332031c0-7.566407 6.132813-13.703125 13.691406-13.703125h33.453125c-7.554687 0-13.691406 6.136718-13.691406 13.703125v76.332031c0 7.566406 6.136719 13.703125 13.691406 13.703125zm0 0" fill="#1980f9" data-original="#1980f9" style="" class=""/><path xmlns="http://www.w3.org/2000/svg" d="m90.035156 461.585938h-33.453125c-7.558593 0-13.691406-6.132813-13.691406-13.699219v-76.335938c0-7.566406 6.132813-13.699219 13.691406-13.699219h33.453125c-7.554687 0-13.691406 6.132813-13.691406 13.699219v76.335938c0 7.566406 6.136719 13.699219 13.691406 13.699219zm0 0" fill="#1980f9" data-original="#1980f9" style="" class=""/><g xmlns="http://www.w3.org/2000/svg" fill="#274c93"><path d="m73.597656 91.292969h179.21875c4.296875 0 7.785156-3.484375 7.785156-7.785157 0-4.296874-3.484374-7.785156-7.785156-7.785156h-179.21875c-4.300781 0-7.785156 3.488282-7.785156 7.785156 0 4.300782 3.484375 7.785157 7.785156 7.785157zm0 0" fill="#274c93" data-original="#274c93" style="" class=""/><path d="m73.597656 130.179688h70.582032c4.300781 0 7.785156-3.484376 7.785156-7.785157 0-4.296875-3.484375-7.785156-7.785156-7.785156h-70.582032c-4.300781 0-7.785156 3.488281-7.785156 7.785156 0 4.300781 3.484375 7.785157 7.785156 7.785157zm0 0" fill="#274c93" data-original="#274c93" style="" class=""/><path d="m175.320312 114.609375c-4.300781 0-7.785156 3.488281-7.785156 7.785156 0 4.300781 3.484375 7.785157 7.785156 7.785157h29.144532c4.296875 0 7.785156-3.484376 7.785156-7.785157 0-4.296875-3.488281-7.785156-7.785156-7.785156zm0 0" fill="#274c93" data-original="#274c93" style="" class=""/><path d="m252.816406 228.617188h-179.21875c-4.300781 0-7.785156 3.488281-7.785156 7.785156 0 4.300781 3.484375 7.785156 7.785156 7.785156h179.21875c4.296875 0 7.785156-3.484375 7.785156-7.785156 0-4.296875-3.488281-7.785156-7.785156-7.785156zm0 0" fill="#274c93" data-original="#274c93" style="" class=""/><path d="m73.597656 283.074219h51.078125c4.300781 0 7.785157-3.484375 7.785157-7.785157 0-4.296874-3.484376-7.785156-7.785157-7.785156h-51.078125c-4.300781 0-7.785156 3.488282-7.785156 7.785156 0 4.300782 3.484375 7.785157 7.785156 7.785157zm0 0" fill="#274c93" data-original="#274c93" style="" class=""/><path d="m73.597656 397.082031h128.273438c4.300781 0 7.785156-3.484375 7.785156-7.785156 0-4.296875-3.484375-7.785156-7.785156-7.785156h-128.273438c-4.300781 0-7.785156 3.488281-7.785156 7.785156 0 4.300781 3.484375 7.785156 7.785156 7.785156zm0 0" fill="#274c93" data-original="#274c93" style="" class=""/><path d="m214.820312 420.398438h-47.804687c-4.300781 0-7.785156 3.488281-7.785156 7.785156 0 4.300781 3.484375 7.785156 7.785156 7.785156h47.804687c4.296876 0 7.785157-3.484375 7.785157-7.785156 0-4.296875-3.488281-7.785156-7.785157-7.785156zm0 0" fill="#274c93" data-original="#274c93" style="" class=""/><path d="m135.875 420.398438h-62.277344c-4.300781 0-7.785156 3.488281-7.785156 7.785156 0 4.300781 3.484375 7.785156 7.785156 7.785156h62.277344c4.300781 0 7.785156-3.484375 7.785156-7.785156 0-4.296875-3.484375-7.785156-7.785156-7.785156zm0 0" fill="#274c93" data-original="#274c93" style="" class=""/></g><path xmlns="http://www.w3.org/2000/svg" d="m390.183594 510.007812c-1.246094.167969-2.503906.3125-3.757813.4375-76.832031 7.898438-145.527343-47.984374-153.425781-124.828124-7.898438-76.832032 47.984375-145.527344 124.828125-153.425782 11.074219-1.144531 21.996094-.957031 32.574219.433594 62.808594 8.222656 114.09375 58.628906 120.851562 124.394531 7.777344 75.578125-46.167968 143.273438-121.070312 152.988281zm0 0" fill="#efa74a" data-original="#f64346" style="" class=""/><path xmlns="http://www.w3.org/2000/svg" d="m390.183594 510.007812c-1.246094.167969-2.503906.3125-3.757813.4375-76.832031 7.898438-145.527343-47.984374-153.425781-124.828124-7.902344-76.832032 47.984375-145.527344 124.828125-153.425782 11.074219-1.144531 21.996094-.957031 32.570313.433594-74.898438 9.71875-128.84375 77.414062-121.070313 152.992188 6.757813 65.765624 58.042969 116.171874 120.855469 124.390624zm0 0" fill="#fa9008" data-original="#cb353c" style="" class=""/><path xmlns="http://www.w3.org/2000/svg" d="m475.121094 360.734375c-4.796875-46.683594-40.140625-83.410156-84.761719-91.363281-67.515625-12.082032-128.257813 44.078125-121.226563 112.539062 5.476563 53.285156 50.496094 92.953125 102.832032 92.953125 61.792968 0 109.390625-53.480469 103.15625-114.128906zm0 0" fill="#fff5f4" data-original="#fff5f4" style="" class=""/><path xmlns="http://www.w3.org/2000/svg" d="m339.289062 448.351562c14.492188 13.007813 32.136719 21.570313 50.957032 24.902344-6.042969 1.085938-12.304688 1.609375-18.28125 1.609375 2.332031 0-36.097656 3.027344-69.003906-26.511719-19.171876-17.199218-31.191407-40.792968-33.828126-66.441406-5.835937-56.796875 35.613282-107.742187 92.410157-113.585937 9.394531-.957031 19.035156-.703125 28.816406 1.046875-52.898437 9.363281-90.472656 58.273437-84.898437 112.539062 2.636718 25.648438 14.65625 49.242188 33.828124 66.441406zm0 0" fill="#ebe0da" data-original="#ebe0da" style="" class=""/><path xmlns="http://www.w3.org/2000/svg" d="m372.128906 379.105469h-59.949218c-4.300782 0-7.785157-3.484375-7.785157-7.785157 0-4.300781 3.484375-7.785156 7.785157-7.785156h52.164062v-63.746094c0-4.300781 3.484375-7.785156 7.785156-7.785156 4.296875 0 7.785156 3.484375 7.785156 7.785156v71.53125c0 4.296876-3.488281 7.785157-7.785156 7.785157zm0 0" fill="#fa9008" data-original="#cb353c" style="" class=""/></g></svg>
