<svg xmlns="http://www.w3.org/2000/svg" width="29.075" height="29.998" viewBox="0 0 29.075 29.998">
  <g id="ic_deliveries" transform="translate(0.004 -0.001)">
    <path id="Path_14" data-name="Path 14" d="M698.664,365.472l-6.534,2.9c-.179-.569-.258-14.081-.1-16.047l6.426-2.851c.091.027.119.028.134.042a.113.113,0,0,1,.035.065,3.216,3.216,0,0,1,.034.371C698.664,355.108,698.664,360.26,698.664,365.472Z" transform="translate(-676.872 -338.42)" fill="#fba31e"/>
    <path id="Path_15" data-name="Path 15" d="M647.078,351.923v16.088l-6.607-2.931V349Z" transform="translate(-633.167 -338.012)" fill="#82b663"/>
    <path id="Path_16" data-name="Path 16" d="M744.5,346.361V330.3l5.988-2.672c.02.263.047.453.048.644,0,4.855-.008,9.71.015,14.564a1.117,1.117,0,0,1-.758,1.214c-1.552.652-3.082,1.355-4.622,2.035C744.963,346.18,744.754,346.257,744.5,346.361Z" transform="translate(-721.491 -319.873)" fill="#fba31e"/>
    <path id="Path_17" data-name="Path 17" d="M592.136,327.659l5.982,2.651v16.035a3.144,3.144,0,0,1-.357-.108c-1.677-.742-3.348-1.5-5.032-2.223a.93.93,0,0,1-.653-.969q.021-7.469.014-14.939C592.091,327.985,592.115,327.863,592.136,327.659Z" transform="translate(-592.077 -319.895)" fill="#82b663"/>
    <g id="Group_10" data-name="Group 10" transform="translate(0.602)">
      <path id="Path_18" data-name="Path 18" d="M703.38,281.352l3.317,1.508a37.827,37.827,0,0,1-5.415,2.51c-.96-.433-1.942-.877-2.923-1.322-.012-.006-.011-.042-.031-.133a10.3,10.3,0,0,0,4.126-1.833c.245-.207.457-.454.727-.726l-1.031-.5a.978.978,0,0,1,.083-.277,2.019,2.019,0,0,0-1.762-3.1,4.236,4.236,0,0,0-2.555.758c-.169.108-.328.23-.58.407,1.557.792,3.135,1.392,4.71,2.161a2.824,2.824,0,0,1-.916.8,8.579,8.579,0,0,1-3.091,1.147c-1.136.2-2.287.327-3.433.473a7.5,7.5,0,0,1-.842,0,12.588,12.588,0,0,1,3.41-4.525l-1.132-.576c.241-.208.431-.392.641-.549a5.7,5.7,0,0,1,4.053-1.333,3.321,3.321,0,0,1,3.079,3.536,9.27,9.27,0,0,1-.435,1.574Z" transform="translate(-679.018 -276.218)" fill="#313131"/>
      <path id="Path_19" data-name="Path 19" d="M656.062,331.576l-6.769,3.007-6.945-3.088c.738-.328,1.32-.592,1.907-.847a10.063,10.063,0,0,1,2.087-.85,12.748,12.748,0,0,1,2.172.086c1,0,2.006-.039,3.007-.109a2.328,2.328,0,0,1,1.17.161c1.121.5,2.253.983,3.381,1.472Z" transform="translate(-635.362 -321.678)" fill="#313131"/>
      <path id="Path_20" data-name="Path 20" d="M623.968,278.11l-1.154.583a12.6,12.6,0,0,1,3.357,4.422c-1.784.319-7.148-.616-8.2-2.324l2.325-1.05c.753-.338,1.508-.673,2.273-1.014a3.893,3.893,0,0,0-3.394-1.206,2.287,2.287,0,0,0-1.384.855,1.727,1.727,0,0,0-.222,1.846c.081.181.19.349.336.611l-1.055.488a2.953,2.953,0,0,1,.4-4.2,3.724,3.724,0,0,1,2.347-.9A6.4,6.4,0,0,1,623.968,278.11Z" transform="translate(-613.119 -276.225)" fill="#313131"/>
      <path id="Path_21" data-name="Path 21" d="M670.957,285.632a15.149,15.149,0,0,0-3.1-4.038c.968-.431,1.872-.851,2.793-1.23a.942.942,0,0,1,.654.014c.9.375,1.781.787,2.735,1.216A15.711,15.711,0,0,0,670.957,285.632Z" transform="translate(-657.019 -279.694)" fill="#313131"/>
      <path id="Path_22" data-name="Path 22" d="M604.618,312.64l-3.022,1.334-5.532-2.455,3.64-1.64c1.285,1.578,3.075,2.135,4.912,2.6Z" transform="translate(-596.064 -304.798)" fill="#313131"/>
    </g>
  </g>
</svg>
