<svg id="ic_house_holds" xmlns="http://www.w3.org/2000/svg" width="29.274" height="29.274" viewBox="0 0 29.274 29.274">
  <g id="Group_5" data-name="Group 5">
    <path id="Path_13" data-name="Path 13" d="M23.466,0H5.809A5.809,5.809,0,0,0,0,5.809V23.465a5.809,5.809,0,0,0,5.809,5.809H23.465a5.809,5.809,0,0,0,5.809-5.809V5.809A5.808,5.808,0,0,0,23.465,0Zm1.061,25.558H17.1a.742.742,0,0,1-.7-.5L15.6,22a.815.815,0,0,0-.694-.544L9.37,21.028a2.279,2.279,0,0,1-1-.365l-3.6-2.638a1.477,1.477,0,0,1-.52-.832c-.073-.461-.18-1.147-.25-1.613a8.076,8.076,0,0,1-.079-1.025V13.1a1.688,1.688,0,0,1,1.853-1.448A1.688,1.688,0,0,1,7.625,13.1v1.458a1.447,1.447,0,0,0,.383.893l.1.1,1.8,1.784a1.534,1.534,0,0,0,.944.379h8.217a.417.417,0,0,0,.452-.5l-.126-.576a3.02,3.02,0,0,0-.462-.906,4.565,4.565,0,0,1-.686-2.573A1.776,1.776,0,0,1,20.1,11.377h0c.949,0,1.2,1.581,2.1,2.481a2.438,2.438,0,0,1,.576.831l.293.97a2.092,2.092,0,0,1,.118.5H23.2a2.181,2.181,0,0,1,.256.477l1.275,2.81a2.4,2.4,0,0,1,.177.989L24.823,21.6l.3,3.445A.59.59,0,0,1,24.527,25.558ZM8.486,7.084V3.423h2.178V5.235L14.089,2.33l8.478,7.195H20.1v1.131a2.515,2.515,0,0,0-2.577,2.479,5.281,5.281,0,0,0,.82,3.012,2.413,2.413,0,0,1,.344.641l.044.2h-2.75V12.1H12.227v4.886H10.852a.855.855,0,0,1-.433-.168l-1.9-1.882a.776.776,0,0,1-.167-.377V13.1a1.878,1.878,0,0,0-.244-.91V9.5H5.638Z" fill="#82b663"/>
  </g>
</svg>
