<svg id="Capa_1" enable-background="new 0 0 512 512" height="512" viewBox="0 0 512 512" width="512" xmlns="http://www.w3.org/2000/svg"><path d="m436 106.09c0 8.29-6.72 15-15 15s-15-6.71-15-15c0-14.8-12.04-26.85-26.84-26.85h-246.32c-14.8 0-26.84 12.05-26.84 26.85 0 8.29-6.72 15-15 15s-15-6.71-15-15c0-31.35 25.5-56.85 56.84-56.85h246.32c31.34 0 56.84 25.5 56.84 56.85z" fill="#00317e"/><path d="m436 106.09c0 8.29-6.72 15-15 15s-15-6.71-15-15c0-14.8-12.04-26.85-26.84-26.85h-123.16v-30h123.16c31.34 0 56.84 25.5 56.84 56.85z" fill="#001035"/><path d="m280.95 411.72v75.41c0 13.74-11.14 24.87-24.87 24.87h-.16c-13.73 0-24.87-11.13-24.87-24.87v-75.41z" fill="#00317e"/><path d="m256 411.72h24.95v75.41c0 13.74-11.14 24.87-24.87 24.87h-.08z" fill="#001035"/><path d="m366.67 180.88v132.33c0 37.17-30.23 67.41-67.38 67.41h-86.58c-37.15 0-67.38-30.24-67.38-67.41v-132.33c0-37.16 30.23-67.4 67.38-67.4h86.58c37.15 0 67.38 30.24 67.38 67.4z" fill="#ffda00"/><path d="m366.67 180.88v132.33c0 37.17-30.23 67.41-67.38 67.41h-43.29v-267.14h43.29c37.15 0 67.38 30.24 67.38 67.4z" fill="#ff9f00"/><path d="m241 113.48h30v267.14h-30z" fill="#fff"/><path d="m256 113.48h15v267.14h-15z" fill="#dbffff"/><path d="m312.55 344.9v67.04c0 6.01-4.87 10.88-10.88 10.88h-91.34c-6.01 0-10.88-4.87-10.88-10.88v-67.04c0-26.08 21.14-47.21 47.21-47.21h18.68c26.08 0 47.21 21.13 47.21 47.21z" fill="#ff9f00"/><ellipse cx="256" cy="64.24" fill="#ff9f00" rx="64.22" ry="64.24"/><path d="m256 128.48v-128.48c35.47 0 64.22 28.76 64.22 64.24s-28.75 64.24-64.22 64.24z" fill="#ff7d43"/><path d="m312.55 344.9v67.04c0 6.01-4.87 10.88-10.88 10.88h-45.67v-125.13h9.34c26.08 0 47.21 21.13 47.21 47.21z" fill="#ff7d43"/><path d="m271 53.78v20.92c0 8.29-6.72 15-15 15s-15-6.71-15-15v-20.92c0-8.29 6.72-15 15-15s15 6.71 15 15z" fill="#fff"/><path d="m271 53.78v20.92c0 8.29-6.72 15-15 15v-50.92c8.28 0 15 6.71 15 15z" fill="#dbffff"/></svg>