<?xml version="1.0"?>
<svg xmlns="http://www.w3.org/2000/svg" xmlns:xlink="http://www.w3.org/1999/xlink" xmlns:svgjs="http://svgjs.com/svgjs" version="1.1" width="512" height="512" x="0" y="0" viewBox="0 0 256 256" style="enable-background:new 0 0 512 512" xml:space="preserve" class=""><g><path xmlns="http://www.w3.org/2000/svg" d="m61.3 170.069a2.5 2.5 0 0 1 -2.5-2.5v-80.345a2.5 2.5 0 0 1 5 0v80.345a2.5 2.5 0 0 1 -2.5 2.5z" fill="#fa9008" data-original="#f9b087" style="" class=""/><path xmlns="http://www.w3.org/2000/svg" d="m175.113 140.313h-101.798a2.5 2.5 0 0 1 -2.5-2.5v-50.589a2.5 2.5 0 1 1 5 0v48.089h99.3a3.514 3.514 0 0 0 3.51-3.51v-44.579a2.5 2.5 0 1 1 5 0v44.576a8.52 8.52 0 0 1 -8.512 8.513z" fill="#fa9008" data-original="#f9b087" style="" class=""/><path xmlns="http://www.w3.org/2000/svg" d="m73.315 170.069a2.5 2.5 0 0 1 -2.5-2.5v-17.738a2.5 2.5 0 0 1 2.5-2.5h101.8a15.546 15.546 0 0 0 15.527-15.531v-44.576a2.5 2.5 0 1 1 5 0v44.576a20.552 20.552 0 0 1 -20.529 20.528h-99.3v15.238a2.5 2.5 0 0 1 -2.498 2.503z" fill="#fa9008" data-original="#f9b087" style="" class=""/><path xmlns="http://www.w3.org/2000/svg" d="m183.719 72.617a2.5 2.5 0 0 1 -1.768-.733l-10.238-10.238a2.5 2.5 0 0 1 3.535-3.536l8.471 8.471 15.3-15.3a2.5 2.5 0 1 1 3.535 3.535l-17.068 17.068a2.493 2.493 0 0 1 -1.767.733z" fill="#fa9008" data-original="#f9b087" style="" class=""/><g xmlns="http://www.w3.org/2000/svg" fill="#846f75"><path d="m67.306 165.07a28.139 28.139 0 1 0 28.139 28.138 28.171 28.171 0 0 0 -28.139-28.138zm0 51.278a23.139 23.139 0 1 1 23.139-23.14 23.166 23.166 0 0 1 -23.139 23.14z" fill="#846f75" data-original="#846f75" style="" class=""/><path d="m67.306 33.445a28.14 28.14 0 1 0 28.139 28.139 28.171 28.171 0 0 0 -28.139-28.139zm0 51.279a23.14 23.14 0 1 1 23.139-23.14 23.166 23.166 0 0 1 -23.139 23.14z" fill="#846f75" data-original="#846f75" style="" class=""/><path d="m187.132 89.724a28.14 28.14 0 1 0 -28.139-28.14 28.172 28.172 0 0 0 28.139 28.14zm0-51.279a23.14 23.14 0 1 1 -23.139 23.139 23.166 23.166 0 0 1 23.139-23.139z" fill="#846f75" data-original="#846f75" style="" class=""/><path d="m213.068 185.125-4.485-1.156 2.356-3.991a5.025 5.025 0 0 0 -.778-6.1l-4.049-4.048a5.024 5.024 0 0 0 -6.1-.776l-3.989 2.354-1.157-4.489a5.026 5.026 0 0 0 -4.866-3.767h-5.726a5.026 5.026 0 0 0 -4.865 3.767l-1.156 4.486-3.992-2.356a5.025 5.025 0 0 0 -6.1.777l-4.05 4.049a5.026 5.026 0 0 0 -.775 6.1l2.355 3.99-4.489 1.156a5.025 5.025 0 0 0 -3.764 4.865v5.726a5.026 5.026 0 0 0 3.767 4.865l4.486 1.156-2.356 3.991a5.025 5.025 0 0 0 .777 6.1l4.049 4.048a5.022 5.022 0 0 0 6.1.776l3.989-2.355 1.156 4.488a5.027 5.027 0 0 0 4.865 3.767h5.729a5.028 5.028 0 0 0 4.865-3.769l1.156-4.486 3.991 2.356a5.023 5.023 0 0 0 6.1-.777l4.05-4.049a5.026 5.026 0 0 0 .776-6.1l-2.355-3.989 4.488-1.157a5.025 5.025 0 0 0 3.765-4.864v-5.723a5.026 5.026 0 0 0 -3.768-4.865zm-1.235 4.865-.016 5.749-7.7 1.985a2.5 2.5 0 0 0 -1.529 3.692l4.039 6.879-4.077 4.054-6.852-4.044a2.5 2.5 0 0 0 -3.698 1.529l-2 7.721-5.749-.017-1.985-7.7a2.5 2.5 0 0 0 -3.692-1.529l-6.88 4.039-4.053-4.077 4.044-6.851a2.5 2.5 0 0 0 -1.53-3.692l-7.719-2.008.015-5.75 7.7-1.985a2.5 2.5 0 0 0 1.53-3.691l-4.039-6.879 4.077-4.055 6.851 4.044a2.5 2.5 0 0 0 3.692-1.528l2.008-7.72 5.75.015 1.984 7.7a2.5 2.5 0 0 0 3.691 1.529l6.88-4.038 4.054 4.076-4.044 6.852a2.5 2.5 0 0 0 1.529 3.691z" fill="#846f75" data-original="#846f75" style="" class=""/><path d="m187.132 181.577a11.276 11.276 0 1 0 11.276 11.276 11.289 11.289 0 0 0 -11.276-11.276zm0 17.552a6.276 6.276 0 1 1 6.276-6.276 6.283 6.283 0 0 1 -6.276 6.276z" fill="#846f75" data-original="#846f75" style="" class=""/></g><path xmlns="http://www.w3.org/2000/svg" d="m67.306 204.5a11.291 11.291 0 1 1 11.294-11.292 11.3 11.3 0 0 1 -11.294 11.292zm0-17.581a6.291 6.291 0 1 0 6.29 6.29 6.3 6.3 0 0 0 -6.29-6.291z" fill="#ebe7f2" data-original="#ebe7f2" style=""/><path xmlns="http://www.w3.org/2000/svg" d="m67.306 72.875a11.291 11.291 0 1 1 11.294-11.291 11.3 11.3 0 0 1 -11.294 11.291zm0-17.581a6.291 6.291 0 1 0 6.29 6.29 6.3 6.3 0 0 0 -6.29-6.29z" fill="#ebe7f2" data-original="#ebe7f2" style=""/></g></svg>
